<svg width="32" height="32" viewBox="0 0 32 32" fill="none" xmlns="http://www.w3.org/2000/svg">
<path d="M23.8233 20.1767L23.8232 20.1767L23.4697 20.5303C23.4697 20.5303 23.4697 20.5303 23.4697 20.5303C23.3721 20.6279 23.2138 20.6279 23.1162 20.5303C23.1162 20.5303 23.1162 20.5303 23.1161 20.5303L16.3536 13.7677L16 13.4141L15.6465 13.7677L8.88388 20.5303C8.78625 20.6279 8.62803 20.6279 8.53039 20.5303L8.17679 20.1767C8.07915 20.079 8.07915 19.9208 8.17679 19.8232L15.8233 12.1767C15.9209 12.0791 16.0791 12.0791 16.1768 12.1767L23.8233 19.8232C23.8233 19.8232 23.8233 19.8232 23.8233 19.8232C23.9209 19.9208 23.9209 20.0791 23.8233 20.1767Z" fill="black" stroke="black"/>
</svg>
