<svg width="116" height="19" viewBox="0 0 116 19" fill="none" xmlns="http://www.w3.org/2000/svg">
<g clip-path="url(#clip0_184_3006)">
<path d="M9.07088 0.667886C9.41462 -0.148573 10.5854 -0.148572 10.9291 0.667888L12.9579 5.48678C13.1029 5.83098 13.4306 6.06615 13.8067 6.09594L19.0727 6.51302C19.9649 6.58369 20.3267 7.68368 19.6469 8.25894L15.6348 11.6542C15.3482 11.8968 15.223 12.2773 15.3106 12.6399L16.5363 17.7165C16.744 18.5767 15.7969 19.2565 15.033 18.7957L10.5245 16.0751C10.2025 15.8808 9.7975 15.8808 9.47548 16.0751L4.96699 18.7957C4.20311 19.2565 3.25596 18.5767 3.46363 17.7165L4.68942 12.6399C4.77698 12.2773 4.65182 11.8968 4.36526 11.6542L0.353062 8.25894C-0.326718 7.68368 0.0350679 6.58369 0.927291 6.51302L6.19336 6.09594C6.5695 6.06615 6.89716 5.83098 7.04207 5.48678L9.07088 0.667886Z" fill="black"/>
<path d="M33.0709 0.667886C33.4146 -0.148573 34.5854 -0.148572 34.9291 0.667888L36.9579 5.48678C37.1029 5.83098 37.4306 6.06615 37.8067 6.09594L43.0727 6.51302C43.9649 6.58369 44.3267 7.68368 43.6469 8.25894L39.6348 11.6542C39.3482 11.8968 39.223 12.2773 39.3106 12.6399L40.5363 17.7165C40.744 18.5767 39.7969 19.2565 39.033 18.7957L34.5245 16.0751C34.2025 15.8808 33.7975 15.8808 33.4755 16.0751L28.967 18.7957C28.2031 19.2565 27.256 18.5767 27.4636 17.7165L28.6894 12.6399C28.777 12.2773 28.6518 11.8968 28.3653 11.6542L24.3531 8.25894C23.6733 7.68368 24.0351 6.58369 24.9273 6.51302L30.1934 6.09594C30.5695 6.06615 30.8972 5.83098 31.0421 5.48678L33.0709 0.667886Z" fill="black"/>
<path d="M57.0708 0.667886C57.4145 -0.148573 58.5853 -0.148572 58.929 0.667888L60.9578 5.48678C61.1028 5.83098 61.4304 6.06615 61.8065 6.09594L67.0725 6.51302C67.9648 6.58369 68.3265 7.68368 67.6468 8.25894L63.6347 11.6542C63.3481 11.8968 63.2229 12.2773 63.3104 12.6399L64.5362 17.7165C64.7439 18.5767 63.7968 19.2565 63.0329 18.7957L58.5244 16.0751C58.2024 15.8808 57.7974 15.8808 57.4754 16.0751L52.9669 18.7957C52.203 19.2565 51.2558 18.5767 51.4635 17.7165L52.6893 12.6399C52.7769 12.2773 52.6517 11.8968 52.3651 11.6542L48.3529 8.25894C47.6732 7.68368 48.0349 6.58369 48.9272 6.51302L54.1932 6.09594C54.5694 6.06615 54.897 5.83098 55.0419 5.48678L57.0708 0.667886Z" fill="black"/>
<path d="M81.0708 0.667886C81.4145 -0.148573 82.5853 -0.148572 82.929 0.667888L84.9578 5.48678C85.1028 5.83098 85.4304 6.06615 85.8065 6.09594L91.0725 6.51302C91.9648 6.58369 92.3265 7.68368 91.6468 8.25894L87.6347 11.6542C87.3481 11.8968 87.2229 12.2773 87.3104 12.6399L88.5362 17.7165C88.7439 18.5767 87.7968 19.2565 87.0329 18.7957L82.5244 16.0751C82.2024 15.8808 81.7974 15.8808 81.4754 16.0751L76.9669 18.7957C76.203 19.2565 75.2558 18.5767 75.4635 17.7165L76.6893 12.6399C76.7769 12.2773 76.6517 11.8968 76.3651 11.6542L72.3529 8.25894C71.6732 7.68368 72.0349 6.58369 72.9272 6.51302L78.1932 6.09594C78.5694 6.06615 78.897 5.83098 79.0419 5.48678L81.0708 0.667886Z" fill="black"/>
<path d="M105.071 0.667886C105.414 -0.148573 106.585 -0.148572 106.929 0.667888L108.958 5.48678C109.103 5.83098 109.43 6.06615 109.806 6.09594L115.072 6.51302C115.965 6.58369 116.326 7.68368 115.647 8.25894L111.635 11.6542C111.348 11.8968 111.223 12.2773 111.31 12.6399L112.536 17.7165C112.744 18.5767 111.797 19.2565 111.033 18.7957L106.524 16.0751C106.202 15.8808 105.797 15.8808 105.475 16.0751L100.967 18.7957C100.203 19.2565 99.2557 18.5767 99.4634 17.7165L100.689 12.6399C100.777 12.2773 100.652 11.8968 100.365 11.6542L96.3528 8.25894C95.673 7.68368 96.0348 6.58369 96.927 6.51302L102.193 6.09594C102.569 6.06615 102.897 5.83098 103.042 5.48678L105.071 0.667886Z" fill="black"/>
</g>
<defs>
<clipPath id="clip0_184_3006">
<rect width="116" height="18.8889" fill="white" transform="translate(0 0.055542)"/>
</clipPath>
</defs>
</svg>
