<svg width="117" height="19" viewBox="0 0 117 19" fill="none" xmlns="http://www.w3.org/2000/svg">
<g clip-path="url(#clip0_25_1029)">
<path d="M9.57088 0.612343C9.91462 -0.204115 11.0854 -0.204114 11.4291 0.612346L13.4579 5.43123C13.6029 5.77543 13.9306 6.01061 14.3067 6.0404L19.5727 6.45748C20.4649 6.52814 20.8267 7.62813 20.1469 8.2034L16.1348 11.5987C15.8482 11.8412 15.723 12.2218 15.8106 12.5843L17.0363 17.661C17.244 18.5211 16.2969 19.201 15.533 18.7401L11.0245 16.0196C10.7025 15.8252 10.2975 15.8252 9.97548 16.0196L5.46699 18.7401C4.70311 19.201 3.75596 18.5211 3.96363 17.661L5.18942 12.5843C5.27698 12.2218 5.15182 11.8412 4.86526 11.5987L0.853062 8.2034C0.173282 7.62813 0.535068 6.52814 1.42729 6.45748L6.69336 6.0404C7.0695 6.01061 7.39716 5.77543 7.54207 5.43123L9.57088 0.612343Z" fill="black"/>
<path d="M33.5709 0.612343C33.9146 -0.204115 35.0854 -0.204114 35.4291 0.612346L37.4579 5.43123C37.6029 5.77543 37.9306 6.01061 38.3067 6.0404L43.5727 6.45748C44.4649 6.52814 44.8267 7.62813 44.1469 8.2034L40.1348 11.5987C39.8482 11.8412 39.723 12.2218 39.8106 12.5843L41.0363 17.661C41.244 18.5211 40.2969 19.201 39.533 18.7401L35.0245 16.0196C34.7025 15.8252 34.2975 15.8252 33.9755 16.0196L29.467 18.7401C28.7031 19.201 27.756 18.5211 27.9636 17.661L29.1894 12.5843C29.277 12.2218 29.1518 11.8412 28.8653 11.5987L24.8531 8.2034C24.1733 7.62813 24.5351 6.52814 25.4273 6.45748L30.6934 6.0404C31.0695 6.01061 31.3972 5.77543 31.5421 5.43123L33.5709 0.612343Z" fill="black"/>
<path d="M57.5709 0.612343C57.9146 -0.204115 59.0854 -0.204114 59.4291 0.612346L61.4579 5.43123C61.6029 5.77543 61.9306 6.01061 62.3067 6.0404L67.5727 6.45748C68.4649 6.52814 68.8267 7.62813 68.1469 8.2034L64.1348 11.5987C63.8482 11.8412 63.723 12.2218 63.8106 12.5843L65.0363 17.661C65.244 18.5211 64.2969 19.201 63.533 18.7401L59.0245 16.0196C58.7025 15.8252 58.2975 15.8252 57.9755 16.0196L53.467 18.7401C52.7031 19.201 51.756 18.5211 51.9636 17.661L53.1894 12.5843C53.277 12.2218 53.1518 11.8412 52.8653 11.5987L48.8531 8.2034C48.1733 7.62813 48.5351 6.52814 49.4273 6.45748L54.6934 6.0404C55.0695 6.01061 55.3972 5.77543 55.5421 5.43123L57.5709 0.612343Z" fill="black"/>
<path d="M81.5709 0.612343C81.9146 -0.204115 83.0854 -0.204114 83.4291 0.612346L85.4579 5.43123C85.6029 5.77543 85.9306 6.01061 86.3067 6.0404L91.5727 6.45748C92.4649 6.52814 92.8267 7.62813 92.1469 8.2034L88.1348 11.5987C87.8482 11.8412 87.723 12.2218 87.8106 12.5843L89.0363 17.661C89.244 18.5211 88.2969 19.201 87.533 18.7401L83.0245 16.0196C82.7025 15.8252 82.2975 15.8252 81.9755 16.0196L77.467 18.7401C76.7031 19.201 75.756 18.5211 75.9636 17.661L77.1894 12.5843C77.277 12.2218 77.1518 11.8412 76.8653 11.5987L72.8531 8.2034C72.1733 7.62813 72.5351 6.52814 73.4273 6.45748L78.6934 6.0404C79.0695 6.01061 79.3972 5.77543 79.5421 5.43123L81.5709 0.612343Z" fill="black"/>
<path d="M105.571 0.612343C105.915 -0.204115 107.085 -0.204114 107.429 0.612346L109.458 5.43123C109.603 5.77543 109.931 6.01061 110.307 6.0404L115.573 6.45748C116.465 6.52814 116.827 7.62813 116.147 8.2034L112.135 11.5987C111.848 11.8412 111.723 12.2218 111.811 12.5843L113.036 17.661C113.244 18.5211 112.297 19.201 111.533 18.7401L107.025 16.0196C106.703 15.8252 106.297 15.8252 105.975 16.0196L101.467 18.7401C100.703 19.201 99.756 18.5211 99.9636 17.661L101.189 12.5843C101.277 12.2218 101.152 11.8412 100.865 11.5987L96.8531 8.2034C96.1733 7.62813 96.5351 6.52814 97.4273 6.45748L102.693 6.0404C103.069 6.01061 103.397 5.77543 103.542 5.43123L105.571 0.612343Z" fill="black"/>
</g>
<defs>
<clipPath id="clip0_25_1029">
<rect width="116" height="18.8889" fill="white" transform="translate(0.5)"/>
</clipPath>
</defs>
</svg>
